# xmcd
# 
# Track frame offsets:
#     150
#     23698
#     38060
#     56392
#     66001
#     79700
#     95400
#     111637
#     126674
#     141338
#     156379
#     170681
#     195943
#     206466
#     218016
# 
# Disc length: 3083
# 
# Revision: 1
# Processed by: cddbd v1.5.2PL0 Copyright (c) Steve Scherf et al.
# Submitted via: fre:ac v1.0.17
# 
DISCID=d50c090f
DTITLE=Various Artist - 30 Stars - Country [CD2-2)
DYEAR=2015
DGENRE=Country
TTITLE0=Brad Paisley - This is Country Music
TTITLE1=John Denver - Take me Home, Country Roads
TTITLE2=Alan Jackson - Country Boy
TTITLE3=Waylon Jennings - Theme from "The Dukes of Hazzard"
TTITLE4=The Highwaymen - Highwayman
TTITLE5=Doug Stone -  A Jukebox with a Country Song
TTITLE6=Gretchen Wilson - Redneck Woman
TTITLE7=Kenny Chesney - Out last Night
TTITLE8=Pistol Annies - Hell on Heels
TTITLE9=Billy Ray Cyrus - Crazy 'Bout You Baby
TTITLE10=Miranda Lambert - Gunpowder and Lead
TTITLE11=Sara Evans - Born to Fly
TTITLE12=The Statler Brothers - Flowers on the Wall
TTITLE13=Jim Reeves - Welcome to my World
TTITLE14=Dolly Parton - I will always Love You
EXTD=
EXTT0=
EXTT1=
EXTT2=
EXTT3=
EXTT4=
EXTT5=
EXTT6=
EXTT7=
EXTT8=
EXTT9=
EXTT10=
EXTT11=
EXTT12=
EXTT13=
EXTT14=
PLAYORDER=
